<mxfile host="app.diagrams.net" modified="2023-12-29T14:43:20.344Z" agent="Mozilla/5.0 (X11; Linux x86_64) AppleWebKit/537.36 (KHTML, like Gecko) Chrome/119.0.0.0 Safari/537.36" version="22.1.16" etag="PzCdLc--N77nMc9k26n1" type="github">
  <diagram name="Page-1" id="0S-1YPAGHANoycX-0G1p">
    <mxGraphModel>
      <root>
        <mxCell id="0" />
        <mxCell id="1" parent="0" />
      </root>
    </mxGraphModel>
  </diagram>
</mxfile>
